<?xml version="1.0" standalone="no"?>
<!DOCTYPE svg PUBLIC "-//W3C//DTD SVG 20010904//EN"
 "http://www.w3.org/TR/2001/REC-SVG-20010904/DTD/svg10.dtd">
<svg version="1.0" xmlns="http://www.w3.org/2000/svg"
 width="310.000000pt" height="310.000000pt" viewBox="0 0 310.000000 310.000000"
 preserveAspectRatio="xMidYMid meet">

<g transform="translate(0.000000,310.000000) scale(0.100000,-0.100000)"
fill="#000000" stroke="none">
<path d="M0 1550 l0 -1550 1550 0 1550 0 0 1550 0 1550 -1550 0 -1550 0 0
-1550z m1726 942 c29 -38 134 -252 159 -323 21 -59 37 -87 72 -120 l45 -44 -7
55 c-11 96 -53 257 -85 326 -17 37 -28 69 -25 72 2 3 30 -8 62 -24 l58 -29 18
-85 c10 -47 21 -151 24 -231 6 -143 6 -148 38 -199 l33 -53 11 52 c21 100 32
237 25 331 l-7 94 40 -32 c67 -53 67 -52 54 -144 -17 -120 -46 -236 -82 -328
l-31 -81 -37 78 c-124 255 -394 387 -672 329 -214 -46 -403 -231 -454 -447
-40 -172 2 -369 109 -503 17 -22 41 -62 52 -89 27 -64 60 -104 118 -146 l48
-33 -27 52 c-14 29 -24 54 -22 57 15 14 72 -35 109 -94 43 -69 80 -93 159
-108 l37 -7 -65 67 c-36 36 -63 69 -60 72 18 18 80 -14 162 -82 98 -81 106
-84 215 -66 l45 7 -80 41 c-44 23 -98 53 -120 67 l-40 24 30 8 c20 5 44 1 75
-10 25 -10 95 -36 155 -57 l110 -40 70 32 70 32 -81 13 c-44 7 -118 25 -164
40 -78 24 -83 27 -65 41 14 9 33 13 60 9 22 -3 114 -9 205 -12 l165 -7 63 67
c63 68 76 92 45 82 -105 -32 -387 -74 -402 -60 -3 3 4 13 15 23 11 11 53 26
104 36 94 18 249 66 326 100 50 22 50 23 73 99 13 43 21 79 19 82 -3 2 -26
-10 -52 -26 -105 -67 -338 -171 -351 -158 -15 14 15 43 74 73 110 55 242 149
310 220 l64 66 -6 -108 c-29 -531 -485 -938 -1020 -910 -399 20 -751 293 -870
672 -78 250 -58 494 59 733 52 106 80 132 229 207 l90 45 -68 -2 c-37 -2 -67
0 -67 3 0 3 22 25 50 48 l50 42 97 -25 c89 -23 103 -24 157 -13 l58 12 -59 29
c-33 15 -84 34 -114 40 l-54 13 61 31 61 31 72 -40 c40 -22 94 -54 119 -72 33
-22 72 -37 127 -48 l80 -17 -65 60 c-36 33 -96 82 -133 108 -37 27 -64 51 -59
54 5 3 34 8 65 12 l56 7 84 -85 c47 -47 104 -111 127 -142 31 -41 60 -65 107
-90 48 -26 63 -30 58 -18 -16 44 -96 173 -158 254 l-69 91 63 -7 c41 -5 67
-13 75 -24z m680 -484 l16 -36 -51 -97 c-54 -104 -144 -235 -192 -281 l-29
-28 0 31 c0 19 17 58 42 99 53 87 113 225 133 306 25 98 24 96 45 68 11 -14
27 -42 36 -62z m90 -246 c6 -38 4 -42 -67 -117 -73 -77 -210 -194 -267 -227
l-29 -17 5 24 c2 14 45 66 96 118 86 86 205 247 222 299 7 22 8 22 20 -9 8
-17 16 -50 20 -71z"/>
</g>
</svg>
